<svg width="94.5" height="62.3" viewBox="0 0 94.5 62.3" xmlns="http://www.w3.org/2000/svg"><g id="svgGroup" stroke-linecap="round" fill-rule="evenodd" font-size="9pt" stroke="#fff200" stroke-width="0.25mm" fill="#fff200" style="stroke:#fff200;stroke-width:0.25mm;fill:#fff200"><path d="M 49.6 62.3 L 49.6 0 L 63.7 0 L 64.6 0 L 64.6 1.1 A 3.162 3.162 0 0 0 64.112 1.889 A 2.813 2.813 0 0 0 63.95 2.4 Q 63.801 3.094 63.8 4.772 A 38.418 38.418 0 0 0 63.8 4.8 L 63.8 24.4 L 79.5 24.4 L 79.5 0 L 93.6 0 L 94.5 0 L 94.5 1.1 A 3.162 3.162 0 0 0 94.012 1.889 A 2.813 2.813 0 0 0 93.85 2.4 Q 93.701 3.094 93.7 4.772 A 38.418 38.418 0 0 0 93.7 4.8 L 93.7 62.3 L 79.5 62.3 L 79.5 35.4 L 63.8 35.4 L 63.8 62.3 L 49.6 62.3 Z M 15.9 62.3 L 0 62.3 L 0 0 L 17.1 0 Q 21.381 0 24.61 0.584 A 24.754 24.754 0 0 1 26.5 1 A 22.069 22.069 0 0 1 30.126 2.284 A 17.155 17.155 0 0 1 33 3.95 Q 35.7 5.9 37.8 8.7 A 30.407 30.407 0 0 1 40.627 13.296 A 35.673 35.673 0 0 1 41.45 15.05 A 37.841 37.841 0 0 1 43.507 21.182 A 42.855 42.855 0 0 1 43.85 22.7 Q 44.7 26.8 44.7 31.6 Q 44.7 38.7 43 44.35 A 27.411 27.411 0 0 1 40.26 50.623 A 23.615 23.615 0 0 1 37.8 54 A 22.065 22.065 0 0 1 30.825 59.279 A 26.74 26.74 0 0 1 28.85 60.15 Q 23.763 62.157 16.891 62.291 A 50.916 50.916 0 0 1 15.9 62.3 Z M 13.9 11 L 13.9 51.2 L 15.7 51.2 A 21.682 21.682 0 0 0 19.297 50.92 Q 21.264 50.589 22.846 49.865 A 10.622 10.622 0 0 0 24.95 48.6 A 13.346 13.346 0 0 0 29.231 42.765 A 16.752 16.752 0 0 0 29.65 41.55 Q 31 37.1 31 31.6 A 54.966 54.966 0 0 0 30.78 26.55 Q 30.55 24.062 30.08 21.887 A 31.615 31.615 0 0 0 29.85 20.9 A 15.819 15.819 0 0 0 28.423 17.161 A 12.304 12.304 0 0 0 25.6 13.65 Q 23.092 11.506 18.816 11.097 A 22.223 22.223 0 0 0 16.7 11 L 13.9 11 Z" vector-effect="non-scaling-stroke"/></g></svg>